<svg version="1.2" xmlns="http://www.w3.org/2000/svg" viewBox="0 0 3556 3138" width="3556" height="3138">
	<style>
		path{
				fill: #272727
			} 
		@media (prefers-color-scheme: dark){
			path{
					fill: white;
				} 
		}
	</style>
	<path d="m1184.5 39c0 0 381 554.4 386 587.1 12.9 39.2-385 1500.7-385 1500.7l-30.5-51.8 376.8-1441.2-68.4-9.9-363.3 1363.1-35.1-57 351.5-1314.1-65-11.4-330.2 1247.4-37.3-62.9 313.5-1195.4-56.2-12.3-296.9 1131.5-44.4-73.8 281.5-1068.9-51.5-10.2-271.7 1016.1-43.5-84.4 250-941-44-6.7-237.8 888.7-50.3-83.3 214.8-816.9-39.5-6.4-206.2 769.4-53.2-94.8 184-694-37.4-4.5-172.9 658.3-57.3-94.5 152.6-580.2-34.1-5.4-145.1 543-59.9-109.1 122-447.9-25.9-9.3-112 429.6-66.6-109.6 88.1-335.8-18.7-5-84 316.8-67.4-117 56-216.2-13.4-3.4-55.3 197-67.9-117.3 20.9-94.8-15.7-6.6-15.5 73.7-27-28.3-141.6-248.5c0 0-42.8-54.9-16.9-111.5 29.1-53.3 89.2-47.2 89.2-47.2zm1792.6 1045.6c0 0-670.7 51.8-701.5 39.8-40.4-8.5-1105.6-1085.5-1105.6-1085.5l60.1-0.4 1058.2 1048.5 42.9-54.2-997.4-997.7 66.9-1.8 960.9 962.9 42.4-50.5-913.8-911 73.1-0.8 877.2 870.5 38.8-42.4-830.2-824.2 86.1-1.4 783.8 779.5 34.6-39.5-743-744.5 94.8 4.7 688.9 688 27.9-34.7-649.8-651.3 97.3-1.7 599.2 595.3 25.4-30.9-562.5-564.1 108.8 1.5 508.3 507 22.5-30.1-482.9-479.6 110.5-2.1 425.5 422.8 21.9-26.8-397.2-397.7 124.5 2.9 326.3 330 21.1-17.7-315.6-312.3 128.2-2.7 246.4 244.6 13.7-13.6-232-231.6 135 0.4 159.1 156.8 9.6-9.9-142.7-146.6 135.5 0.1 71.5 65.6 13.6-10.3-56-50.4 38-9.2 286 2.1c0 0 69-9.5 105 41.2 31.6 51.9-3.9 100.8-3.9 100.8zm-1798.9 1032.9c0 0 289-607.5 314.8-628.2 27.5-30.8 1491.8-418.4 1491.8-418.4l-29.6 52.3-1436.1 395.7 25.6 64.2 1361.8-368.2-31.7 58.9-1313.5 353.9 22.7 61.9 1245-338.9-35.7 63.8-1191.6 327.3 17.4 54.8 1128.1-309.6-41.7 75.3-1066.2 291.7 17.1 49.7 1015.5-273.7-51.2 79.9-939.7 254.9 16.2 41.4 888.3-239.2-46.9 85.2-814.6 223.2 14.2 37.5 769.2-207-55.4 93.6-692.8 188.4 14.8 34.5 656.4-180-53.1 96.9-578.6 158.5 12.4 32.3 542.6-146.4-64.4 106.5-448.7 118.7 4.8 27 428-118.1-61.5 112.5-334.8 91.9 5 18.7 316.3-85.9-67.5 116.9-215.2 59.8 3.8 13.3 198.2-50.8-67.6 117.5-92.4 29.3 2.1 17 71.5-23.5-10.9 37.5-144.2 247c0 0-26.1 64.6-88 70.6-60.7 1.5-85.5-53.6-85.5-53.6z"/>
</svg>