<svg xmlns="http://www.w3.org/2000/svg" viewBox="0 0 1440 320" transform="rotate(90)">
  <path fill="#0099ff" fill-opacity="1" d="M0,224L17.1,197.3C34.3,171,69,117,103,80C137.1,43,171,21,206,48C240,75,274,149,309,160C342.9,171,377,117,411,122.7C445.7,128,480,192,514,181.3C548.6,171,583,85,617,85.3C651.4,85,686,171,720,176C754.3,181,789,107,823,101.3C857.1,96,891,160,926,176C960,192,994,160,1029,122.7C1062.9,85,1097,43,1131,64C1165.7,85,1200,171,1234,186.7C1268.6,203,1303,149,1337,138.7C1371.4,128,1406,160,1423,176L1440,192L1440,0L1422.9,0C1405.7,0,1371,0,1337,0C1302.9,0,1269,0,1234,0C1200,0,1166,0,1131,0C1097.1,0,1063,0,1029,0C994.3,0,960,0,926,0C891.4,0,857,0,823,0C788.6,0,754,0,720,0C685.7,0,651,0,617,0C582.9,0,549,0,514,0C480,0,446,0,411,0C377.1,0,343,0,309,0C274.3,0,240,0,206,0C171.4,0,137,0,103,0C68.6,0,34,0,17,0L0,0Z"></path>
</svg>
