<svg width="595" height="578" viewBox="0 0 595 578" fill="none" xmlns="http://www.w3.org/2000/svg">
<path d="M555.599 365.527H360.57V255.892H555.599V365.527ZM361.76 364.371H554.409V257.048H361.76V364.371Z" fill="#E0E0E0"/>
<path d="M515.365 314.351H386.691V318.016H515.365V314.351Z" fill="#F0F0F0"/>
<path d="M524.231 328.015H386.691V332.015H524.231V328.015Z" fill="#F0F0F0"/>
<path d="M524.231 341.841H386.691V345.841H524.231V341.841Z" fill="#F0F0F0"/>
<path d="M431.661 294.502H386.691V304.016H431.661V294.502Z" fill="#F0F0F0"/>
<path d="M555.004 256.47H361.201V273.926H555.004V256.47Z" fill="#E0E0E0"/>
<path d="M540.093 271.313C539.843 271.082 542.343 268.157 545.663 264.782C548.983 261.406 551.898 258.852 552.136 259.071C552.374 259.291 549.887 262.227 546.567 265.614C543.247 269.001 540.331 271.545 540.093 271.313Z" fill="white"/>
<path d="M552.16 271.313C551.922 271.544 549.018 269.001 545.686 265.614C542.354 262.227 539.867 259.302 540.117 259.071C540.367 258.84 543.259 261.383 546.591 264.782C549.923 268.181 552.386 271.082 552.16 271.313Z" fill="white"/>
<path d="M315.612 39.3618H121.808V147.852H315.612V39.3618Z" fill="#E6E6E6"/>
<path d="M275.985 97.2544H147.31V100.919H275.985V97.2544Z" fill="#F0F0F0"/>
<path d="M284.85 110.918H147.31V114.918H284.85V110.918Z" fill="#F0F0F0"/>
<path d="M284.85 124.744H147.31V128.744H284.85V124.744Z" fill="#F0F0F0"/>
<path d="M192.28 77.4058H147.31V86.9196H192.28V77.4058Z" fill="#F0F0F0"/>
<path d="M315.612 39.3618H121.808V56.8174H315.612V39.3618Z" fill="#E0E0E0"/>
<path d="M300.047 54.1239C299.797 53.9043 302.296 50.968 305.616 47.5925C308.936 44.217 311.851 41.6622 312.089 41.8934C312.327 42.1246 309.84 45.0493 306.52 48.4248C303.2 51.8004 300.285 54.332 300.047 54.1239Z" fill="white"/>
<path d="M312.089 54.124C311.851 54.3552 308.948 51.812 305.616 48.4249C302.284 45.0378 299.797 42.1247 300.047 41.8935C300.296 41.6623 303.188 44.2055 306.52 47.5926C309.852 50.9797 312.339 53.9043 312.089 54.124Z" fill="white"/>
<path d="M242.213 240.899H47.2192V131.252H242.213V240.899ZM48.4092 239.743H241.023V132.408H48.4092V239.743Z" fill="#E0E0E0"/>
<path d="M201.991 189.723H73.3159V193.387H201.991V189.723Z" fill="#F0F0F0"/>
<path d="M210.856 203.387H73.3159V207.386H210.856V203.387Z" fill="#F0F0F0"/>
<path d="M210.856 217.212H73.3159V221.212H210.856V217.212Z" fill="#F0F0F0"/>
<path d="M118.286 169.874H73.3159V179.388H118.286V169.874Z" fill="#F0F0F0"/>
<path d="M241.618 131.83H47.8142V149.286H241.618V131.83Z" fill="#E0E0E0"/>
<path d="M467.253 266.019H238.417V465.036H467.253V266.019Z" fill="#E6E6E6"/>
<path d="M249.924 203.329H70.6622V384.255H249.924V203.329Z" fill="#F0F0F0"/>
<path d="M249.924 203.329H70.6622V223.039H249.924V203.329Z" fill="#E0E0E0"/>
<path d="M85.4658 212.981C85.4332 213.696 85.1852 214.386 84.7527 214.965C84.3202 215.544 83.7221 215.987 83.0328 216.239C82.3434 216.49 81.5931 216.54 80.875 216.381C80.1569 216.223 79.5025 215.863 78.9931 215.346C78.4838 214.829 78.1418 214.179 78.0097 213.475C77.8776 212.771 77.9612 212.045 78.25 211.387C78.5389 210.729 79.0203 210.167 79.6346 209.773C80.2489 209.378 80.969 209.167 81.7054 209.167C82.7239 209.191 83.6911 209.606 84.3957 210.32C85.1003 211.035 85.485 211.992 85.4658 212.981Z" fill="white"/>
<path d="M100.734 212.981C100.703 213.699 100.456 214.393 100.023 214.976C99.5901 215.559 98.9902 216.005 98.2981 216.259C97.606 216.513 96.8523 216.564 96.1307 216.405C95.4091 216.246 94.7516 215.885 94.2399 215.365C93.7281 214.846 93.3849 214.193 93.2528 213.485C93.1207 212.778 93.2055 212.049 93.4969 211.388C93.7882 210.728 94.273 210.165 94.8911 209.77C95.5093 209.375 96.2333 209.165 96.9732 209.167C97.9916 209.191 98.9588 209.606 99.6634 210.32C100.368 211.035 100.753 211.992 100.734 212.981Z" fill="white"/>
<path d="M116.001 212.981C115.971 213.699 115.724 214.393 115.291 214.976C114.858 215.559 114.258 216.005 113.566 216.259C112.874 216.513 112.12 216.564 111.398 216.405C110.677 216.246 110.019 215.885 109.508 215.365C108.996 214.846 108.653 214.193 108.52 213.485C108.388 212.778 108.473 212.049 108.765 211.388C109.056 210.728 109.541 210.165 110.159 209.77C110.777 209.375 111.501 209.165 112.241 209.167C113.259 209.191 114.227 209.606 114.931 210.32C115.636 211.035 116.02 211.992 116.001 212.981Z" fill="white"/>
<path d="M530.002 78.9316H301.165V300.491H530.002V78.9316Z" fill="#F0F0F0"/>
<path d="M530.002 78.9316H301.165V104.884H530.002V78.9316Z" fill="#E0E0E0"/>
<path d="M320.657 91.6477C320.615 92.5912 320.289 93.5019 319.719 94.2668C319.149 95.0317 318.36 95.6171 317.45 95.9502C316.541 96.2834 315.55 96.3497 314.602 96.1408C313.654 95.932 312.79 95.4572 312.118 94.7755C311.445 94.0938 310.993 93.2352 310.818 92.3062C310.644 91.3772 310.754 90.4188 311.135 89.5501C311.516 88.6813 312.151 87.9404 312.962 87.4193C313.773 86.8983 314.723 86.62 315.695 86.6191C317.039 86.6495 318.315 87.1956 319.245 88.1381C320.175 89.0805 320.683 90.3425 320.657 91.6477Z" fill="white"/>
<path d="M339.305 88.2492C339.965 88.9451 340.399 89.8143 340.554 90.7483C340.708 91.6824 340.577 92.6401 340.175 93.502C339.774 94.3639 339.12 95.092 338.296 95.5956C337.471 96.0991 336.512 96.3558 335.539 96.3338C334.565 96.3117 333.62 96.0118 332.82 95.4715C332.021 94.9311 331.403 94.1742 331.043 93.295C330.683 92.4158 330.598 91.4532 330.797 90.5272C330.997 89.6012 331.472 88.7527 332.165 88.0873C333.135 87.1908 334.431 86.7044 335.769 86.7347C337.108 86.7651 338.379 87.3097 339.305 88.2492Z" fill="white"/>
<path d="M360.856 91.6477C360.814 92.5912 360.487 93.5019 359.917 94.2668C359.347 95.0317 358.558 95.6171 357.649 95.9502C356.739 96.2834 355.749 96.3497 354.801 96.1408C353.853 95.932 352.989 95.4572 352.316 94.7755C351.643 94.0938 351.191 93.2352 351.017 92.3062C350.842 91.3772 350.952 90.4188 351.333 89.5501C351.714 88.6813 352.349 87.9404 353.16 87.4193C353.971 86.8983 354.921 86.62 355.893 86.6191C357.237 86.6495 358.513 87.1956 359.443 88.1381C360.373 89.0805 360.881 90.3425 360.856 91.6477Z" fill="white"/>
<path d="M480.57 523.818C480.57 523.98 397.936 524.119 296.036 524.119C194.137 524.119 111.467 523.98 111.467 523.818C111.467 523.656 194.089 523.518 296.036 523.518C397.984 523.518 480.57 523.668 480.57 523.818Z" fill="#263238"/>
<path d="M400.054 382.301C381.669 369.828 377.504 346.673 378.23 325.853C378.349 322.385 377.956 318.709 379.658 315.669C381.359 312.629 385.334 310.536 388.535 311.993C391.189 313.207 392.343 316.212 393.83 318.698C395.815 322.008 398.724 324.705 402.22 326.478C404.493 327.634 407.313 328.327 409.562 327.125C412.656 325.472 413.013 321.345 412.989 317.877C412.989 311.427 412.95 304.984 412.87 298.549C412.657 295.093 413.018 291.627 413.941 288.283C415.048 285 417.511 281.96 420.879 281.035C424.247 280.11 428.448 282.018 429.209 285.393C429.34 286.823 429.376 288.26 429.316 289.694C429.411 291.139 430.102 292.722 431.494 293.162C432.886 293.601 434.338 292.595 435.409 291.578C439.074 288.11 441.573 283.59 443.894 279.128C446.214 274.666 448.487 270.076 451.819 266.273C455.151 262.47 459.756 259.453 464.909 259.164C470.062 258.875 475.429 261.95 476.714 266.805C477.999 271.66 475.084 276.619 471.954 280.561C467.231 286.413 461.664 291.571 455.425 295.878C454.207 296.524 453.235 297.533 452.652 298.757C451.879 301.069 454.128 303.381 456.472 304.109C459.126 304.964 462.006 304.699 464.802 305.022C467.599 305.346 470.574 306.525 471.633 309.068C473.084 312.606 470.038 316.305 467.051 318.732C461.054 323.588 454.243 327.408 446.916 330.027C444.298 330.951 441.549 331.772 439.431 333.552C437.313 335.333 436.052 338.442 437.325 340.881C438.598 343.321 441.871 344.095 444.62 343.598C447.369 343.101 449.808 341.668 452.426 340.708C457.317 338.916 463.624 339.24 466.706 343.344C467.661 344.757 468.265 346.367 468.472 348.046C468.678 349.725 468.481 351.427 467.896 353.019C466.705 356.188 464.872 359.093 462.505 361.562C454.711 370.608 444.585 377.482 433.16 381.48C421.819 385.295 411.312 386.335 400.042 382.324" fill="white"/>
<path d="M471.478 262.019C471.478 262.019 471.371 262.135 471.133 262.343L470.074 263.256C469.146 264.065 467.777 265.244 466.052 266.805C461.159 271.218 456.616 275.982 452.462 281.058C449.808 284.26 447.059 287.89 444.132 291.832C441.204 295.774 438.182 300.028 435.183 304.548C431.986 309.315 429.058 314.247 426.413 319.322C425.032 321.969 423.818 324.732 422.569 327.553L418.88 336.165C414.017 347.013 409.782 358.116 406.195 369.423C403.305 378.674 401.313 388.168 400.245 397.78C399.552 404.266 399.441 410.799 399.911 417.305C400.102 419.617 400.28 421.385 400.447 422.587C400.518 423.165 400.566 423.628 400.613 423.963V424.437C400.562 424.287 400.526 424.132 400.506 423.975C400.447 423.639 400.375 423.189 400.28 422.611C400.066 421.455 399.84 419.628 399.626 417.316C399.052 410.799 399.091 404.244 399.745 397.733C400.747 388.081 402.695 378.543 405.564 369.25C409.121 357.911 413.345 346.78 418.214 335.911L421.998 327.333C423.247 324.524 424.473 321.738 425.865 319.079C428.529 313.988 431.481 309.045 434.707 304.271C437.753 299.647 440.824 295.462 443.715 291.555C446.607 287.648 449.403 283.995 452.045 280.804C456.242 275.741 460.846 271.01 465.814 266.655C467.575 265.117 468.979 263.961 469.931 263.187L471.038 262.32C471.173 262.205 471.321 262.104 471.478 262.019Z" fill="#263238"/>
<path d="M426.02 319.056C425.852 318.58 425.736 318.088 425.675 317.588C425.484 316.628 425.27 315.276 425.02 313.519C424.509 310.051 423.985 305.3 423.426 300.04C422.866 294.78 422.236 290.017 421.712 286.584C421.438 284.873 421.2 283.497 421.034 282.538C420.904 282.047 420.836 281.542 420.832 281.035C421.036 281.498 421.184 281.983 421.272 282.48C421.534 283.428 421.831 284.792 422.164 286.515C422.843 289.983 423.509 294.699 424.068 299.97C424.628 305.242 425.104 309.866 425.473 313.461C425.651 315.079 425.806 316.455 425.925 317.553C426.017 318.049 426.049 318.553 426.02 319.056Z" fill="#263238"/>
<path d="M471.811 310.756C471.232 310.878 470.642 310.948 470.05 310.964C468.86 311.068 467.17 311.207 465.076 311.438C460.887 311.877 455.127 312.687 448.809 313.843C442.49 314.999 436.813 316.305 432.732 317.311C430.697 317.819 429.055 318.282 427.972 318.594C427.393 318.793 426.795 318.933 426.187 319.01C426.737 318.741 427.31 318.521 427.9 318.351C429.019 317.969 430.637 317.438 432.66 316.871C436.718 315.715 442.394 314.34 448.737 313.16C454.11 312.162 459.531 311.429 464.981 310.964C467.087 310.791 468.789 310.721 469.979 310.698C470.59 310.658 471.204 310.677 471.811 310.756Z" fill="#263238"/>
<path d="M406.147 368.44C406.02 368.273 405.916 368.09 405.838 367.897L405.052 366.29C404.374 364.891 403.458 362.822 402.363 360.29C400.149 355.204 397.329 348.083 394.33 340.176C391.331 332.269 388.571 325.148 386.476 320.004C385.453 317.507 384.608 315.461 383.977 313.935L383.311 312.282C383.218 312.091 383.154 311.889 383.12 311.681C383.247 311.848 383.351 312.031 383.43 312.224L384.215 313.831C384.882 315.23 385.81 317.299 386.905 319.83C389.118 324.917 391.938 332.038 394.937 339.945C397.936 347.852 400.697 354.973 402.791 360.117C403.815 362.614 404.659 364.66 405.278 366.186C405.552 366.845 405.778 367.342 405.957 367.839C406.049 368.03 406.113 368.232 406.147 368.44Z" fill="#263238"/>
<path d="M466.932 349.401C466.742 349.508 466.538 349.589 466.325 349.644L464.564 350.222L458.055 352.268C452.557 354.002 444.965 356.476 436.635 359.204C428.305 361.932 420.677 364.36 415.143 365.978C412.383 366.799 410.134 367.423 408.575 367.84L406.778 368.29C406.569 368.355 406.353 368.398 406.135 368.418C406.326 368.311 406.53 368.23 406.742 368.175L408.503 367.597L415.013 365.551C420.51 363.817 428.103 361.343 436.433 358.615C444.763 355.887 452.379 353.459 457.912 351.841C460.685 351.02 462.922 350.396 464.493 349.979L466.29 349.529C466.499 349.464 466.714 349.421 466.932 349.401Z" fill="#263238"/>
<path d="M442.133 68.9901L436.004 71.1172L433.374 63.3373C428.543 48.9913 413.144 41.3733 398.995 46.2169C384.846 51.0606 377.313 66.7937 382.145 81.1397L384.775 88.9196L378.622 91.0582C376.276 91.9421 374.371 93.6703 373.303 95.8835C372.235 98.0966 372.086 100.625 372.887 102.942L389.939 153.563C390.293 154.71 390.881 155.777 391.667 156.699C392.454 157.621 393.423 158.38 394.518 158.931C395.612 159.482 396.81 159.814 398.039 159.906C399.268 159.999 400.504 159.851 401.673 159.47L465.183 137.402C467.56 136.52 469.492 134.776 470.573 132.538C471.654 130.301 471.799 127.743 470.978 125.403L453.914 74.7817C453.55 73.6378 452.954 72.5767 452.159 71.6616C451.365 70.7466 450.389 69.9965 449.289 69.456C448.189 68.9154 446.989 68.5956 445.76 68.5156C444.53 68.4355 443.297 68.5969 442.133 68.9901ZM393.723 77.0821C392.421 73.352 392.655 69.2768 394.376 65.7104C396.097 62.144 399.173 59.3631 402.958 57.9503C404.827 57.3291 406.806 57.08 408.776 57.2179C410.746 57.3557 412.668 57.8777 414.426 58.7527C416.184 59.6276 417.742 60.8377 419.009 62.3106C420.275 63.7834 421.223 65.489 421.796 67.3255L424.413 75.1054L396.341 84.862L393.723 77.0821ZM429.423 122.004L433.779 134.928C433.859 135.188 433.833 135.467 433.707 135.708C433.58 135.949 433.363 136.133 433.101 136.223L426.996 138.339C426.753 138.404 426.493 138.376 426.271 138.259C426.05 138.143 425.883 137.948 425.806 137.714L421.415 124.848C418.993 124.72 416.67 123.876 414.756 122.43C412.842 120.984 411.429 119.004 410.705 116.756C409.67 113.784 409.859 110.538 411.232 107.698C412.605 104.858 415.055 102.644 418.071 101.52C419.56 101.026 421.136 100.828 422.705 100.938C424.274 101.048 425.805 101.464 427.205 102.161C428.605 102.858 429.847 103.821 430.856 104.994C431.864 106.167 432.62 107.525 433.077 108.988C433.842 111.271 433.906 113.723 433.259 116.041C432.612 118.359 431.283 120.443 429.435 122.039L429.423 122.004Z" fill="white"/>
<path d="M435.73 70.9782C435.73 71.1401 424.366 75.2901 410.229 80.2262C396.091 85.1624 384.56 89.1274 384.501 89.0118C384.441 88.8962 395.865 84.7115 410.014 79.7638C424.164 74.8162 435.671 70.828 435.73 70.9782Z" fill="#263238"/>
<path d="M449.225 73.1055C449.277 73.2058 449.321 73.3102 449.356 73.4176C449.451 73.6488 449.558 73.9493 449.701 74.3193C450.01 75.1631 450.439 76.3307 450.974 77.7873L455.544 90.7113C457.448 96.1908 459.721 102.688 462.244 109.901C463.434 113.519 464.838 117.288 466.147 121.253C466.847 123.296 467.15 125.448 467.039 127.599C466.938 128.718 466.611 129.806 466.075 130.801C465.503 131.793 464.74 132.669 463.826 133.379C461.988 134.683 459.947 135.694 457.781 136.373L451.653 138.512L440.05 142.546L420.403 149.344L407.135 153.875L403.565 155.031L402.613 155.332C402.511 155.376 402.402 155.403 402.291 155.413C402.291 155.413 402.387 155.413 402.589 155.274L403.517 154.916L407.087 153.609L420.284 148.893L439.895 141.957L451.474 137.888L457.603 135.738C459.707 135.086 461.688 134.106 463.469 132.836C464.319 132.177 465.03 131.364 465.564 130.443C466.068 129.523 466.371 128.511 466.456 127.472C466.566 125.4 466.275 123.326 465.599 121.357C464.314 117.427 462.958 113.623 461.732 110.005C459.257 102.78 456.972 96.2601 455.163 90.7807C453.354 85.3013 451.831 80.8969 450.784 77.7988C450.284 76.2845 449.903 75.1054 449.594 74.2499L449.308 73.3251C449.272 73.2551 449.244 73.1814 449.225 73.1055Z" fill="#263238"/>
<path d="M415.715 57.1642C415.715 57.1642 415.084 56.8637 413.918 56.4013C412.255 55.7808 410.497 55.4369 408.717 55.384C406.079 55.2961 403.454 55.7778 401.03 56.7943C398.083 58.0601 395.563 60.1075 393.759 62.7015C391.943 65.2881 390.969 68.3448 390.963 71.4755C390.987 74.0415 391.388 76.591 392.153 79.0473C392.771 81.1512 393.414 82.8275 393.842 83.995C394.095 84.5881 394.302 85.1986 394.461 85.8215C394.123 85.267 393.84 84.6825 393.616 84.0759C393.128 82.9199 392.426 81.2784 391.736 79.1629C390.889 76.6808 390.428 74.0899 390.368 71.4755C390.336 68.2265 391.333 65.0465 393.224 62.3662C395.09 59.6775 397.713 57.5668 400.78 56.2857C403.279 55.2636 405.987 54.8127 408.694 54.9678C410.512 55.0579 412.299 55.4692 413.965 56.1816C414.411 56.3814 414.841 56.6132 415.251 56.8752C415.42 56.9475 415.576 57.045 415.715 57.1642Z" fill="#263238"/>
<path d="M416.262 102.399C416.452 102.287 416.651 102.19 416.857 102.11C417.453 101.849 418.07 101.636 418.701 101.474C419.704 101.186 420.739 101.016 421.784 100.965C423.204 100.891 424.626 101.1 425.96 101.578C429.007 102.618 431.803 105.636 433.184 109.67C433.846 111.835 433.846 114.14 433.184 116.305C432.45 118.655 431.134 120.795 429.352 122.536L429.423 122.224C431.006 126.444 432.732 131.021 434.517 135.796L434.624 136.085L434.326 136.189L431.601 137.067L425.651 138.998L425.354 139.09L425.258 138.801C423.628 134.015 421.843 129.553 420.498 125.172L420.76 125.368C418.434 125.181 416.216 124.333 414.382 122.929C412.723 121.688 411.362 120.11 410.395 118.305C409.523 116.705 409.088 114.914 409.134 113.103C409.189 111.253 409.664 109.438 410.526 107.787C411.388 106.136 412.616 104.691 414.12 103.555C414.739 103.066 415.434 102.676 416.179 102.399C415.506 102.786 414.855 103.207 414.227 103.659C412.575 105.017 411.308 106.764 410.55 108.734C409.899 110.219 409.594 111.825 409.658 113.438C409.722 115.051 410.152 116.63 410.919 118.063C411.87 119.799 413.197 121.313 414.81 122.502C416.56 123.835 418.674 124.639 420.891 124.814H421.093L421.153 124.987C422.462 129.287 424.259 133.784 425.913 138.593L425.52 138.408L431.47 136.478L434.183 135.588L433.993 135.981C432.22 131.206 430.506 126.617 428.935 122.398V122.224L429.078 122.085C430.808 120.416 432.098 118.366 432.839 116.109C433.47 114.038 433.47 111.834 432.839 109.762C431.542 105.878 428.864 102.931 425.96 101.89C424.675 101.409 423.303 101.185 421.926 101.231C420.898 101.254 419.876 101.39 418.88 101.636C417.107 102.064 416.274 102.457 416.262 102.399Z" fill="#263238"/>
<path d="M379.479 436.182L260.61 435.65C253.745 435.613 247.176 432.932 242.346 428.193C237.515 423.455 234.818 417.048 234.847 410.38L236.108 120.906C236.122 117.602 236.806 114.333 238.121 111.287C239.436 108.24 241.357 105.475 243.773 103.149C246.189 100.824 249.053 98.9839 252.201 97.7344C255.349 96.4848 258.72 95.8503 262.121 95.867L380.979 96.3988C387.843 96.4324 394.413 99.1114 399.246 103.847C404.079 108.583 406.779 114.989 406.754 121.657L405.493 411.12C405.478 414.425 404.795 417.694 403.48 420.743C402.165 423.791 400.245 426.557 397.829 428.885C395.414 431.212 392.55 433.054 389.401 434.306C386.253 435.558 382.881 436.196 379.479 436.182Z" fill="#455A64"/>
<path d="M380.8 106.352H357.762C357.01 106.365 356.268 106.523 355.579 106.815C354.89 107.107 354.267 107.528 353.745 108.054C353.224 108.58 352.814 109.2 352.539 109.88C352.265 110.56 352.131 111.286 352.145 112.016V116.074C352.159 116.803 352.025 117.529 351.75 118.208C351.475 118.887 351.065 119.507 350.544 120.032C350.022 120.557 349.399 120.977 348.71 121.268C348.021 121.559 347.279 121.715 346.528 121.727L301.617 121.53C300.098 121.491 298.657 120.867 297.611 119.797C296.564 118.726 295.998 117.295 296.036 115.819V111.762C296.075 110.288 295.51 108.859 294.466 107.789C293.422 106.718 291.984 106.094 290.467 106.051H282.363L262.193 105.959C257.395 105.931 252.782 107.751 249.363 111.021C245.943 114.29 243.997 118.742 243.95 123.403L242.76 405.952C242.749 408.264 243.207 410.556 244.108 412.696C245.008 414.836 246.334 416.783 248.009 418.425C249.685 420.068 251.676 421.373 253.871 422.268C256.066 423.163 258.42 423.629 260.8 423.639L379.42 424.171C381.801 424.182 384.162 423.736 386.366 422.861C388.571 421.985 390.576 420.697 392.268 419.068C393.96 417.44 395.305 415.504 396.226 413.37C397.148 411.237 397.628 408.948 397.639 406.634L398.829 124.085C398.857 119.411 396.974 114.918 393.593 111.593C390.213 108.268 385.611 106.382 380.8 106.352Z" fill="white"/>
<path d="M364.842 386.474L276.639 386.104C275.723 386.104 274.985 385.133 274.997 383.954L275.092 361.539C275.092 360.383 275.842 359.389 276.758 359.389L364.961 359.782C365.469 359.867 365.923 360.139 366.229 360.542C366.535 360.945 366.669 361.447 366.603 361.943L366.52 384.335C366.52 385.526 365.758 386.485 364.842 386.474Z" fill="white"/>
<path d="M303.078 374.097C302.656 374.097 302.249 374.029 301.859 373.894C301.474 373.753 301.176 373.574 300.964 373.357L301.2 372.894C301.401 373.089 301.669 373.254 302.005 373.39C302.347 373.52 302.704 373.585 303.078 373.585C303.436 373.585 303.726 373.541 303.949 373.455C304.176 373.363 304.342 373.241 304.445 373.089C304.553 372.937 304.607 372.769 304.607 372.585C304.607 372.362 304.542 372.184 304.412 372.048C304.287 371.913 304.122 371.807 303.916 371.731C303.71 371.65 303.482 371.579 303.233 371.52C302.984 371.46 302.734 371.398 302.485 371.332C302.236 371.262 302.005 371.17 301.794 371.056C301.588 370.942 301.42 370.793 301.29 370.609C301.165 370.419 301.103 370.172 301.103 369.869C301.103 369.587 301.176 369.329 301.322 369.096C301.474 368.858 301.704 368.668 302.013 368.527C302.322 368.381 302.718 368.308 303.2 368.308C303.52 368.308 303.837 368.354 304.152 368.446C304.466 368.533 304.737 368.655 304.965 368.812L304.762 369.292C304.518 369.129 304.257 369.01 303.981 368.934C303.71 368.858 303.447 368.82 303.192 368.82C302.851 368.82 302.569 368.866 302.347 368.958C302.124 369.05 301.959 369.175 301.851 369.332C301.748 369.484 301.696 369.657 301.696 369.853C301.696 370.075 301.758 370.254 301.883 370.389C302.013 370.525 302.181 370.63 302.387 370.706C302.599 370.782 302.829 370.85 303.078 370.91C303.328 370.969 303.574 371.034 303.818 371.105C304.068 371.175 304.295 371.267 304.501 371.381C304.713 371.49 304.881 371.636 305.006 371.82C305.136 372.005 305.201 372.246 305.201 372.544C305.201 372.821 305.125 373.078 304.973 373.317C304.821 373.55 304.588 373.739 304.274 373.886C303.965 374.027 303.566 374.097 303.078 374.097ZM306.512 374.048V368.356H307.113V374.048H306.512ZM308.965 374.048V368.356H309.461L313.389 373.3H313.129V368.356H313.722V374.048H313.226L309.307 369.105H309.567V374.048H308.965ZM318.076 374.097C317.643 374.097 317.242 374.027 316.873 373.886C316.51 373.739 316.193 373.536 315.922 373.276C315.656 373.016 315.447 372.709 315.295 372.357C315.149 372.005 315.076 371.62 315.076 371.202C315.076 370.785 315.149 370.4 315.295 370.048C315.447 369.695 315.659 369.389 315.93 369.129C316.201 368.869 316.518 368.668 316.881 368.527C317.25 368.381 317.651 368.308 318.084 368.308C318.518 368.308 318.914 368.375 319.272 368.511C319.635 368.646 319.944 368.852 320.199 369.129L319.825 369.511C319.586 369.273 319.323 369.102 319.036 368.999C318.749 368.896 318.44 368.844 318.109 368.844C317.757 368.844 317.431 368.904 317.133 369.023C316.84 369.137 316.583 369.302 316.361 369.519C316.144 369.731 315.973 369.98 315.848 370.267C315.729 370.549 315.67 370.861 315.67 371.202C315.67 371.538 315.729 371.85 315.848 372.137C315.973 372.425 316.144 372.677 316.361 372.894C316.583 373.105 316.84 373.27 317.133 373.39C317.431 373.504 317.754 373.56 318.101 373.56C318.426 373.56 318.732 373.512 319.02 373.414C319.312 373.317 319.581 373.151 319.825 372.918L320.166 373.373C319.895 373.612 319.578 373.794 319.215 373.918C318.852 374.037 318.472 374.097 318.076 374.097ZM319.589 373.3V371.202H320.166V373.373L319.589 373.3ZM326.29 374.097C325.564 374.097 324.992 373.888 324.575 373.471C324.157 373.054 323.948 372.436 323.948 371.617V368.356H324.55V371.593C324.55 372.265 324.702 372.761 325.005 373.081C325.309 373.401 325.737 373.56 326.29 373.56C326.849 373.56 327.28 373.401 327.583 373.081C327.887 372.761 328.038 372.265 328.038 371.593V368.356H328.624V371.617C328.624 372.436 328.415 373.054 327.998 373.471C327.586 373.888 327.017 374.097 326.29 374.097ZM330.437 374.048V368.356H332.568C333.05 368.356 333.465 368.435 333.812 368.592C334.159 368.744 334.424 368.966 334.608 369.259C334.798 369.546 334.893 369.896 334.893 370.308C334.893 370.709 334.798 371.056 334.608 371.349C334.424 371.636 334.159 371.858 333.812 372.016C333.465 372.173 333.05 372.251 332.568 372.251H330.771L331.039 371.967V374.048H330.437ZM331.039 372.016L330.771 371.723H332.551C333.12 371.723 333.551 371.601 333.844 371.357C334.142 371.108 334.291 370.758 334.291 370.308C334.291 369.853 334.142 369.5 333.844 369.251C333.551 369.002 333.12 368.877 332.551 368.877H330.771L331.039 368.592V372.016Z" fill="#E8E8E3"/>
<path d="M294.232 189.411L263.626 189.276L263.6 194.732L294.207 194.867L294.232 189.411Z" fill="white"/>
<path opacity="0.1" d="M294.232 189.411L263.626 189.276L263.6 194.732L294.207 194.867L294.232 189.411Z" fill="black"/>
<path d="M383.954 222.911C384.194 222.888 384.43 222.833 384.656 222.75C384.985 222.624 385.271 222.412 385.482 222.136C385.692 221.86 385.818 221.531 385.846 221.189C385.846 219.351 385.846 216.669 385.846 213.224C385.846 211.502 385.846 209.571 385.846 207.444C385.846 206.924 385.846 206.381 385.846 205.837C385.923 205.31 385.805 204.773 385.512 204.323C385.349 204.107 385.136 203.931 384.89 203.809C384.644 203.686 384.372 203.621 384.096 203.618H382.24H365.045L265.513 203.259C265.258 203.255 265.006 203.311 264.778 203.421C264.55 203.532 264.353 203.695 264.204 203.895C263.917 204.347 263.807 204.885 263.894 205.41C263.894 206.566 263.894 207.722 263.894 208.878C263.894 211.19 263.894 213.502 263.894 215.814C263.894 216.97 263.894 218.126 263.894 219.282C263.845 219.82 263.845 220.362 263.894 220.9C263.957 221.131 264.073 221.345 264.234 221.525C264.395 221.705 264.596 221.847 264.823 221.94C265.057 222.031 265.308 222.074 265.56 222.067H271.618L298.047 222.206L342.791 222.472L372.958 222.703L381.157 222.796H383.287C383.775 222.796 384.013 222.796 384.013 222.796H383.287H381.157H372.958H342.791L298.047 222.657L271.618 222.553H265.56C265.227 222.566 264.895 222.511 264.585 222.391C264.271 222.261 263.993 222.064 263.77 221.813C263.547 221.563 263.386 221.266 263.299 220.946C263.231 220.643 263.207 220.331 263.228 220.021V219.166C263.228 218.01 263.228 216.854 263.228 215.698C263.228 213.386 263.228 211.074 263.228 208.762C263.228 207.606 263.228 206.45 263.228 205.294C263.205 204.986 263.205 204.677 263.228 204.369C263.273 204.029 263.408 203.706 263.621 203.433C263.826 203.154 264.098 202.927 264.413 202.772C264.728 202.617 265.077 202.538 265.43 202.543L364.961 203.074L382.157 203.19H384.013C384.34 203.19 384.662 203.267 384.952 203.414C385.242 203.561 385.492 203.774 385.679 204.034C386.015 204.536 386.15 205.141 386.06 205.733C386.06 206.277 386.06 206.82 386.06 207.34C386.06 209.444 386.06 211.374 386.06 213.12C386.06 216.588 385.977 219.247 385.953 221.096C385.924 221.452 385.791 221.792 385.569 222.077C385.348 222.362 385.047 222.579 384.703 222.703C384.478 222.839 384.219 222.911 383.954 222.911Z" fill="#E0E0E0"/>
<path d="M328.797 209.062H272.819V214.16H328.797V209.062Z" fill="white"/>
<path opacity="0.2" d="M328.797 209.062H272.819V214.16H328.797V209.062Z" fill="white"/>
<path d="M294.024 239.187L263.417 239.052L263.392 244.508L293.998 244.643L294.024 239.187Z" fill="white"/>
<path opacity="0.1" d="M294.024 239.187L263.417 239.052L263.392 244.508L293.998 244.643L294.024 239.187Z" fill="black"/>
<path d="M383.18 272.689C383.42 272.66 383.659 272.618 383.894 272.562C384.226 272.459 384.532 272.288 384.791 272.061C385.05 271.833 385.255 271.555 385.393 271.244C385.581 270.777 385.654 270.275 385.608 269.776C385.608 269.221 385.608 268.62 385.608 267.949C385.608 266.608 385.608 265.082 385.608 263.325V255.985C385.664 255.453 385.543 254.918 385.263 254.459C384.969 253.988 384.507 253.638 383.965 253.476C383.373 253.373 382.769 253.342 382.169 253.384H365.044L265.858 253.025C265.324 253.026 264.81 253.216 264.409 253.558C264.008 253.901 263.749 254.373 263.68 254.886C263.68 255.985 263.68 257.198 263.68 258.354C263.68 260.666 263.68 262.978 263.68 265.29C263.68 266.446 263.68 267.602 263.68 268.758C263.636 269.299 263.66 269.842 263.752 270.377C263.9 270.846 264.206 271.253 264.62 271.533C265.06 271.804 265.576 271.933 266.096 271.903H267.75H271.189L297.524 272.03L342.113 272.296L372.173 272.527L380.348 272.619H372.173H342.113L297.5 272.573L271.165 272.481H265.989C265.345 272.518 264.706 272.352 264.168 272.007C263.627 271.642 263.231 271.107 263.05 270.492C262.943 269.905 262.911 269.307 262.954 268.712C262.954 267.556 262.954 266.4 262.954 265.244C262.954 262.932 262.954 260.62 262.954 258.308C262.954 257.152 262.954 255.996 262.954 254.84C263.041 254.179 263.373 253.572 263.888 253.131C264.403 252.691 265.065 252.448 265.751 252.447L364.937 252.979L382.061 253.106C382.699 253.068 383.339 253.111 383.965 253.233C384.584 253.43 385.105 253.841 385.429 254.389C385.737 254.899 385.87 255.49 385.81 256.077C385.81 256.62 385.81 257.152 385.81 257.684C385.81 259.776 385.81 261.695 385.81 263.464C385.81 265.233 385.81 266.724 385.81 268.088C385.81 268.747 385.81 269.36 385.81 269.926C385.853 270.443 385.767 270.962 385.56 271.44C385.406 271.759 385.182 272.042 384.905 272.27C384.628 272.497 384.303 272.664 383.954 272.758C383.693 272.779 383.432 272.756 383.18 272.689Z" fill="#E0E0E0"/>
<path d="M293.793 291.124L263.187 290.989L263.161 296.446L293.768 296.58L293.793 291.124Z" fill="white"/>
<path opacity="0.1" d="M293.793 291.124L263.187 290.989L263.161 296.446L293.768 296.58L293.793 291.124Z" fill="black"/>
<path d="M382.942 324.605C383.183 324.577 383.421 324.535 383.656 324.478C383.987 324.375 384.292 324.206 384.55 323.981C384.809 323.756 385.015 323.48 385.155 323.171C385.342 322.704 385.415 322.202 385.37 321.703C385.37 321.137 385.37 320.547 385.37 319.865C385.37 318.536 385.37 316.998 385.37 315.241V307.901C385.426 307.369 385.305 306.834 385.025 306.375C384.724 305.912 384.264 305.568 383.727 305.404C383.135 305.297 382.532 305.262 381.931 305.3H364.806L265.62 304.941C265.086 304.942 264.572 305.132 264.171 305.474C263.77 305.816 263.511 306.288 263.442 306.802C263.442 307.958 263.442 309.114 263.442 310.27C263.442 312.582 263.442 314.894 263.442 317.206C263.442 318.362 263.442 319.518 263.442 320.674C263.398 321.211 263.422 321.75 263.514 322.281C263.656 322.753 263.963 323.162 264.382 323.437C264.819 323.714 265.338 323.844 265.858 323.807H271.034L297.369 323.946L341.958 324.212L372.018 324.443L380.193 324.535H372.018H341.958L297.369 324.408L271.034 324.304H265.858C265.214 324.346 264.573 324.18 264.037 323.83C263.496 323.466 263.101 322.931 262.919 322.316C262.812 321.728 262.78 321.131 262.823 320.536C262.823 319.38 262.823 318.224 262.823 317.068C262.823 314.756 262.823 312.444 262.823 310.132C262.823 308.976 262.823 307.82 262.823 306.606C262.908 305.946 263.237 305.338 263.75 304.898C264.263 304.457 264.923 304.213 265.608 304.213L364.795 304.745L381.919 304.872C382.556 304.834 383.196 304.877 383.823 304.999C384.441 305.195 384.962 305.607 385.286 306.155C385.594 306.664 385.728 307.255 385.667 307.843C385.667 308.386 385.667 308.929 385.667 309.45C385.667 311.542 385.667 313.461 385.667 315.23C385.667 316.998 385.667 318.489 385.667 319.854C385.667 320.512 385.667 321.125 385.667 321.692C385.713 322.209 385.627 322.729 385.417 323.206C385.263 323.525 385.039 323.808 384.762 324.035C384.485 324.263 384.16 324.429 383.811 324.524C383.532 324.617 383.234 324.644 382.942 324.605Z" fill="#E0E0E0"/>
<path d="M327.602 260.281L271.625 260.035L271.601 265.133L327.578 265.379L327.602 260.281Z" fill="white"/>
<path opacity="0.2" d="M327.602 260.281L271.625 260.035L271.601 265.133L327.578 265.379L327.602 260.281Z" fill="white"/>
<path d="M276.687 315.172C276.652 315.637 276.477 316.082 276.184 316.451C275.891 316.82 275.493 317.098 275.039 317.25C274.585 317.401 274.096 317.42 273.631 317.304C273.166 317.187 272.746 316.941 272.424 316.595C272.102 316.25 271.892 315.82 271.819 315.359C271.746 314.898 271.814 314.427 272.015 314.003C272.215 313.579 272.539 313.222 272.947 312.976C273.354 312.729 273.827 312.605 274.307 312.617C274.97 312.653 275.592 312.941 276.037 313.42C276.483 313.898 276.716 314.527 276.687 315.172Z" fill="white"/>
<path d="M284.267 315.206C284.291 315.532 284.245 315.859 284.132 316.167C284.02 316.475 283.844 316.757 283.614 316.996C283.385 317.235 283.108 317.426 282.799 317.556C282.491 317.686 282.158 317.754 281.822 317.754C281.485 317.754 281.153 317.686 280.844 317.556C280.536 317.426 280.258 317.235 280.029 316.996C279.8 316.757 279.623 316.475 279.511 316.167C279.399 315.859 279.353 315.532 279.376 315.206C279.353 314.88 279.399 314.553 279.511 314.245C279.623 313.937 279.8 313.655 280.029 313.416C280.258 313.177 280.536 312.987 280.844 312.857C281.153 312.726 281.485 312.659 281.822 312.659C282.158 312.659 282.491 312.726 282.799 312.857C283.108 312.987 283.385 313.177 283.614 313.416C283.844 313.655 284.02 313.937 284.132 314.245C284.245 314.553 284.291 314.88 284.267 315.206Z" fill="white"/>
<path d="M291.859 315.241C291.824 315.706 291.65 316.151 291.357 316.52C291.064 316.89 290.666 317.167 290.212 317.319C289.758 317.47 289.268 317.489 288.803 317.373C288.339 317.257 287.919 317.011 287.597 316.665C287.275 316.319 287.064 315.889 286.992 315.428C286.919 314.967 286.987 314.496 287.187 314.072C287.388 313.649 287.712 313.292 288.119 313.045C288.527 312.799 289 312.674 289.479 312.686C290.141 312.725 290.761 313.014 291.206 313.492C291.651 313.97 291.886 314.598 291.859 315.241Z" fill="white"/>
<path d="M299.44 315.276C299.405 315.741 299.23 316.186 298.937 316.555C298.644 316.924 298.246 317.202 297.792 317.354C297.338 317.505 296.848 317.524 296.384 317.408C295.919 317.291 295.499 317.045 295.177 316.699C294.855 316.354 294.645 315.924 294.572 315.463C294.499 315.002 294.567 314.531 294.767 314.107C294.968 313.683 295.292 313.326 295.699 313.08C296.107 312.833 296.58 312.709 297.06 312.721C297.722 312.76 298.341 313.049 298.786 313.527C299.231 314.004 299.466 314.632 299.44 315.276Z" fill="white"/>
<path d="M307.02 315.299C306.987 315.765 306.814 316.211 306.523 316.582C306.231 316.953 305.833 317.232 305.38 317.385C304.926 317.539 304.436 317.559 303.97 317.444C303.504 317.329 303.084 317.084 302.76 316.738C302.437 316.393 302.226 315.963 302.152 315.501C302.078 315.04 302.146 314.568 302.346 314.144C302.546 313.719 302.87 313.362 303.278 313.115C303.686 312.868 304.16 312.743 304.64 312.756C305.3 312.795 305.918 313.082 306.362 313.557C306.807 314.032 307.043 314.657 307.02 315.299Z" fill="white"/>
<path d="M314.612 315.334C314.58 315.797 314.409 316.241 314.12 316.611C313.831 316.981 313.437 317.261 312.986 317.416C312.536 317.571 312.049 317.595 311.584 317.485C311.12 317.375 310.699 317.135 310.373 316.795C310.047 316.456 309.831 316.031 309.75 315.573C309.67 315.115 309.729 314.645 309.92 314.219C310.111 313.794 310.426 313.432 310.827 313.178C311.227 312.924 311.695 312.789 312.173 312.791C312.843 312.815 313.476 313.096 313.933 313.573C314.391 314.049 314.635 314.683 314.612 315.334Z" fill="white"/>
<path d="M322.192 315.368C322.216 315.694 322.17 316.021 322.058 316.329C321.945 316.637 321.769 316.92 321.54 317.158C321.31 317.397 321.033 317.588 320.724 317.718C320.416 317.848 320.083 317.916 319.747 317.916C319.411 317.916 319.078 317.848 318.77 317.718C318.461 317.588 318.184 317.397 317.954 317.158C317.725 316.92 317.549 316.637 317.436 316.329C317.324 316.021 317.278 315.694 317.302 315.368C317.278 315.043 317.324 314.715 317.436 314.408C317.549 314.1 317.725 313.817 317.954 313.578C318.184 313.34 318.461 313.149 318.77 313.019C319.078 312.889 319.411 312.821 319.747 312.821C320.083 312.821 320.416 312.889 320.724 313.019C321.033 313.149 321.31 313.34 321.54 313.578C321.769 313.817 321.945 314.1 322.058 314.408C322.17 314.715 322.216 315.043 322.192 315.368Z" fill="white"/>
<path d="M329.773 315.403C329.74 315.866 329.569 316.31 329.28 316.68C328.991 317.05 328.598 317.33 328.147 317.485C327.697 317.641 327.209 317.665 326.745 317.554C326.281 317.444 325.86 317.204 325.534 316.865C325.208 316.525 324.991 316.1 324.911 315.642C324.83 315.185 324.889 314.714 325.08 314.288C325.272 313.863 325.587 313.501 325.987 313.247C326.387 312.993 326.855 312.859 327.333 312.86C328.004 312.884 328.637 313.165 329.094 313.642C329.551 314.119 329.795 314.752 329.773 315.403Z" fill="white"/>
<path d="M337.353 315.438C337.32 315.903 337.147 316.349 336.856 316.72C336.564 317.091 336.167 317.371 335.713 317.524C335.259 317.677 334.769 317.698 334.303 317.583C333.837 317.468 333.417 317.222 333.094 316.877C332.77 316.531 332.559 316.101 332.485 315.64C332.411 315.179 332.479 314.707 332.679 314.282C332.879 313.858 333.204 313.5 333.611 313.254C334.019 313.007 334.493 312.882 334.973 312.894C335.633 312.933 336.251 313.221 336.695 313.696C337.14 314.171 337.376 314.796 337.353 315.438Z" fill="white"/>
<g opacity="0.2">
<path d="M276.687 315.172C276.652 315.637 276.477 316.082 276.184 316.451C275.891 316.82 275.493 317.098 275.039 317.25C274.585 317.401 274.096 317.42 273.631 317.304C273.166 317.187 272.746 316.941 272.424 316.595C272.102 316.25 271.892 315.82 271.819 315.359C271.746 314.898 271.814 314.427 272.015 314.003C272.215 313.579 272.539 313.222 272.947 312.976C273.354 312.729 273.827 312.605 274.307 312.617C274.97 312.653 275.592 312.941 276.037 313.42C276.483 313.898 276.716 314.527 276.687 315.172Z" fill="white"/>
<path d="M284.267 315.206C284.291 315.532 284.245 315.859 284.132 316.167C284.02 316.475 283.844 316.757 283.614 316.996C283.385 317.235 283.108 317.426 282.799 317.556C282.491 317.686 282.158 317.754 281.822 317.754C281.485 317.754 281.153 317.686 280.844 317.556C280.536 317.426 280.258 317.235 280.029 316.996C279.8 316.757 279.623 316.475 279.511 316.167C279.399 315.859 279.353 315.532 279.376 315.206C279.353 314.88 279.399 314.553 279.511 314.245C279.623 313.937 279.8 313.655 280.029 313.416C280.258 313.177 280.536 312.987 280.844 312.857C281.153 312.726 281.485 312.659 281.822 312.659C282.158 312.659 282.491 312.726 282.799 312.857C283.108 312.987 283.385 313.177 283.614 313.416C283.844 313.655 284.02 313.937 284.132 314.245C284.245 314.553 284.291 314.88 284.267 315.206Z" fill="white"/>
<path d="M291.859 315.241C291.824 315.706 291.649 316.151 291.356 316.52C291.064 316.89 290.665 317.167 290.212 317.319C289.758 317.47 289.268 317.489 288.803 317.373C288.338 317.257 287.919 317.011 287.597 316.665C287.275 316.319 287.064 315.889 286.992 315.428C286.919 314.967 286.987 314.496 287.187 314.072C287.388 313.649 287.712 313.292 288.119 313.045C288.527 312.799 289 312.674 289.479 312.686C290.141 312.725 290.761 313.014 291.206 313.492C291.651 313.97 291.885 314.598 291.859 315.241Z" fill="white"/>
<path d="M299.44 315.276C299.405 315.741 299.23 316.186 298.937 316.555C298.644 316.924 298.246 317.202 297.792 317.354C297.338 317.505 296.848 317.524 296.384 317.408C295.919 317.291 295.499 317.045 295.177 316.699C294.855 316.354 294.645 315.924 294.572 315.463C294.499 315.002 294.567 314.531 294.767 314.107C294.968 313.683 295.292 313.326 295.699 313.08C296.107 312.833 296.58 312.709 297.06 312.721C297.722 312.76 298.341 313.049 298.786 313.527C299.231 314.004 299.466 314.632 299.44 315.276Z" fill="white"/>
<path d="M307.02 315.299C306.987 315.765 306.814 316.211 306.523 316.582C306.231 316.953 305.833 317.232 305.38 317.385C304.926 317.539 304.436 317.559 303.97 317.444C303.504 317.329 303.084 317.084 302.76 316.738C302.437 316.393 302.226 315.963 302.152 315.501C302.078 315.04 302.146 314.568 302.346 314.144C302.546 313.719 302.87 313.362 303.278 313.115C303.686 312.868 304.16 312.743 304.64 312.756C305.3 312.795 305.918 313.082 306.362 313.557C306.807 314.032 307.043 314.657 307.02 315.299Z" fill="white"/>
<path d="M314.612 315.334C314.58 315.797 314.409 316.241 314.12 316.611C313.831 316.981 313.437 317.261 312.986 317.416C312.536 317.571 312.049 317.595 311.584 317.485C311.12 317.375 310.699 317.135 310.373 316.795C310.047 316.456 309.831 316.031 309.75 315.573C309.67 315.115 309.729 314.645 309.92 314.219C310.111 313.794 310.426 313.432 310.827 313.178C311.227 312.924 311.695 312.789 312.173 312.791C312.843 312.815 313.476 313.096 313.933 313.573C314.391 314.049 314.635 314.683 314.612 315.334Z" fill="white"/>
<path d="M322.192 315.368C322.216 315.694 322.17 316.021 322.058 316.329C321.945 316.637 321.769 316.92 321.54 317.158C321.31 317.397 321.033 317.588 320.724 317.718C320.416 317.848 320.083 317.916 319.747 317.916C319.411 317.916 319.078 317.848 318.77 317.718C318.461 317.588 318.184 317.397 317.954 317.158C317.725 316.92 317.549 316.637 317.436 316.329C317.324 316.021 317.278 315.694 317.302 315.368C317.278 315.043 317.324 314.715 317.436 314.408C317.549 314.1 317.725 313.817 317.954 313.578C318.184 313.34 318.461 313.149 318.77 313.019C319.078 312.889 319.411 312.821 319.747 312.821C320.083 312.821 320.416 312.889 320.724 313.019C321.033 313.149 321.31 313.34 321.54 313.578C321.769 313.817 321.945 314.1 322.058 314.408C322.17 314.715 322.216 315.043 322.192 315.368Z" fill="white"/>
<path d="M329.773 315.403C329.74 315.866 329.569 316.31 329.28 316.68C328.991 317.05 328.597 317.33 328.147 317.485C327.696 317.641 327.209 317.665 326.745 317.554C326.28 317.444 325.859 317.204 325.534 316.865C325.208 316.525 324.991 316.1 324.911 315.642C324.83 315.185 324.889 314.714 325.08 314.288C325.272 313.863 325.587 313.501 325.987 313.247C326.387 312.993 326.855 312.859 327.333 312.86C328.004 312.884 328.637 313.165 329.094 313.642C329.551 314.119 329.795 314.752 329.773 315.403Z" fill="white"/>
<path d="M337.353 315.438C337.32 315.903 337.147 316.349 336.856 316.72C336.564 317.091 336.167 317.371 335.713 317.524C335.259 317.677 334.769 317.698 334.303 317.583C333.837 317.468 333.417 317.222 333.094 316.877C332.77 316.531 332.559 316.101 332.485 315.64C332.411 315.179 332.479 314.707 332.679 314.282C332.879 313.858 333.204 313.5 333.611 313.254C334.019 313.007 334.493 312.882 334.973 312.894C335.633 312.933 336.251 313.221 336.695 313.696C337.14 314.171 337.376 314.796 337.353 315.438Z" fill="white"/>
</g>
<path d="M326.584 148.557C327.41 148.204 328.112 147.622 328.6 146.884C329.089 146.146 329.344 145.285 329.332 144.407C329.363 143.837 329.274 143.266 329.071 142.731C328.867 142.195 328.554 141.705 328.149 141.29C327.744 140.876 327.257 140.546 326.717 140.321C326.177 140.095 325.595 139.979 325.007 139.979C324.419 139.979 323.837 140.095 323.297 140.321C322.757 140.546 322.269 140.876 321.865 141.29C321.46 141.705 321.146 142.195 320.943 142.731C320.739 143.266 320.65 143.837 320.681 144.407C320.663 145.293 320.916 146.165 321.407 146.912C321.898 147.659 322.606 148.247 323.442 148.604C316.778 149.575 317.075 156.603 317.075 156.603L332.831 156.672C332.831 156.672 333.2 149.517 326.584 148.557Z" fill="white"/>
<path opacity="0.1" d="M326.584 148.557C327.41 148.204 328.112 147.622 328.6 146.884C329.089 146.146 329.344 145.285 329.332 144.407C329.363 143.837 329.274 143.266 329.071 142.731C328.867 142.195 328.554 141.705 328.149 141.29C327.744 140.876 327.257 140.546 326.717 140.321C326.177 140.095 325.595 139.979 325.007 139.979C324.419 139.979 323.837 140.095 323.297 140.321C322.757 140.546 322.269 140.876 321.865 141.29C321.46 141.705 321.146 142.195 320.943 142.731C320.739 143.266 320.65 143.837 320.681 144.407C320.663 145.293 320.916 146.165 321.407 146.912C321.898 147.659 322.606 148.247 323.442 148.604C316.778 149.575 317.075 156.603 317.075 156.603L332.831 156.672C332.831 156.672 333.2 149.517 326.584 148.557Z" fill="black"/>
<path d="M352.186 161.206L296.03 160.958L296 167.478L352.155 167.726L352.186 161.206Z" fill="white"/>
<path opacity="0.2" d="M352.186 161.206L296.03 160.958L296 167.478L352.155 167.726L352.186 161.206Z" fill="white"/>
<path d="M145.739 194.994H145.18L143.562 195.11C142.686 195.161 141.815 195.273 140.956 195.445C140.399 195.521 139.847 195.625 139.301 195.757L137.457 196.254C134.318 197.19 131.355 198.615 128.687 200.474C125.161 202.96 122.216 206.143 120.047 209.814C118.772 211.93 117.758 214.184 117.025 216.531C116.254 219.08 115.81 221.713 115.704 224.368C115.633 225.763 115.657 227.161 115.775 228.553C115.775 229.258 115.977 229.963 116.073 230.68C116.153 231.402 116.292 232.118 116.489 232.819C117.559 237.457 119.73 241.789 122.83 245.468C125.929 249.147 129.87 252.071 134.339 254.008C137.574 255.364 141.041 256.121 144.561 256.239C148.198 256.433 151.838 255.927 155.271 254.748L156.318 254.366H156.461L156.58 254.436L171.586 261.834L171.146 262.204C169.539 257.372 167.992 252.69 166.493 248.193V248.02L166.624 247.893C170.264 244.331 172.966 239.969 174.502 235.177C175.892 230.796 176.298 226.175 175.692 221.628C175.152 217.588 173.815 213.686 171.753 210.138C169.975 207.09 167.682 204.354 164.97 202.046C162.732 200.219 160.255 198.687 157.604 197.491C155.597 196.651 153.508 196.012 151.368 195.584L148.988 195.202L147.263 195.075L146.215 195.006H145.858C145.977 194.993 146.097 194.993 146.215 195.006H147.274L149 195.075L151.38 195.41C153.547 195.807 155.664 196.423 157.699 197.248C160.396 198.43 162.917 199.958 165.196 201.792C167.958 204.09 170.3 206.826 172.122 209.884C174.242 213.47 175.621 217.424 176.18 221.524C176.836 226.141 176.459 230.842 175.073 235.304C173.528 240.196 170.783 244.651 167.076 248.286L167.147 247.985C168.647 252.482 170.206 257.164 171.824 261.984L172.05 262.69L171.372 262.354L156.366 254.968H156.628L155.557 255.349C152.057 256.545 148.35 257.064 144.645 256.875C141.048 256.742 137.509 255.958 134.208 254.563C127.913 251.944 122.675 247.392 119.298 241.604C117.743 238.931 116.608 236.048 115.93 233.05C115.744 232.331 115.605 231.601 115.513 230.865C115.418 230.137 115.263 229.42 115.228 228.703C114.906 224.59 115.353 220.454 116.549 216.496C117.3 214.117 118.343 211.835 119.655 209.699C121.875 205.994 124.881 202.791 128.472 200.3C131.185 198.437 134.197 197.023 137.386 196.116L139.254 195.653C139.804 195.529 140.36 195.433 140.92 195.364C141.788 195.208 142.667 195.115 143.55 195.087L145.18 195.029C145.365 195.005 145.552 194.993 145.739 194.994Z" fill="white"/>
<path d="M152.522 221.952H150.321L145.561 215.456V211.19C145.561 211.19 142.157 210.982 142.562 216.565C142.967 222.149 142.562 220.727 142.562 220.727C142.562 220.727 135.339 220.727 134.744 221.363C134.149 221.999 134.113 228.773 134.03 232.553C133.984 233.464 134.253 234.364 134.794 235.11C135.336 235.855 136.118 236.404 137.017 236.668C137.269 236.736 137.529 236.771 137.79 236.772C139.599 236.772 148.798 235.35 148.798 235.35H152.594L152.522 221.952Z" fill="white"/>
<path d="M158.817 220.808L157.461 235.419H153.7V221.108L158.817 220.808Z" fill="white"/>
<path d="M203.669 518.281V508.397L185.426 508.27L185.271 523.217L186.402 523.298C191.435 523.61 212.01 524.073 215.39 523.055C219.15 521.922 203.669 518.281 203.669 518.281Z" fill="white"/>
<path d="M215.818 522.131C215.818 522.292 208.988 522.431 200.574 522.431C192.161 522.431 185.331 522.292 185.331 522.131C185.331 521.969 192.161 521.83 200.574 521.83C208.988 521.83 215.818 521.969 215.818 522.131Z" fill="#263238"/>
<path d="M203.99 520.304C203.835 520.223 203.99 519.703 204.359 519.148C204.728 518.593 205.227 518.362 205.346 518.478C205.465 518.593 205.215 519.033 204.858 519.507C204.501 519.981 204.144 520.385 203.99 520.304Z" fill="#263238"/>
<path d="M205.156 520.951C204.989 520.951 205.073 520.304 205.43 519.691C205.787 519.079 206.263 518.709 206.394 518.801C206.525 518.894 206.31 519.414 205.977 519.957C205.644 520.501 205.311 521.009 205.156 520.951Z" fill="#263238"/>
<path d="M190.828 522.085C190.757 522.085 190.483 521.876 190.091 521.437C189.611 520.873 189.077 520.354 188.496 519.888C187.924 519.445 187.243 519.154 186.521 519.044C185.961 518.975 185.604 519.044 185.569 518.975C185.533 518.906 185.878 518.663 186.532 518.617C187.396 518.599 188.239 518.877 188.912 519.403C189.544 519.902 190.076 520.509 190.483 521.194C190.757 521.703 190.9 522.038 190.828 522.085Z" fill="#263238"/>
<path d="M204.049 518.443C204.133 518.582 203.823 518.929 203.3 519.114C202.776 519.299 202.312 519.229 202.288 519.114C202.264 518.998 202.633 518.755 203.085 518.593C203.538 518.432 203.954 518.304 204.049 518.443Z" fill="#263238"/>
<path d="M203.764 517.484C203.764 517.657 203.288 517.796 202.669 517.807C202.05 517.819 201.562 517.68 201.574 517.518C201.586 517.356 202.074 517.206 202.669 517.195C203.264 517.183 203.74 517.322 203.764 517.484Z" fill="#263238"/>
<path d="M248.591 518.281V508.397L230.348 508.27L230.194 523.067L231.324 523.148C236.358 523.46 256.945 524.073 260.313 523.055C264.073 521.922 248.591 518.281 248.591 518.281Z" fill="white"/>
<path d="M260.741 522.154C260.741 522.315 253.922 522.454 245.497 522.454C237.072 522.454 230.265 522.315 230.265 522.154C230.265 521.992 237.084 521.853 245.497 521.853C253.91 521.853 260.741 521.992 260.741 522.154Z" fill="#263238"/>
<path d="M248.912 520.304C248.77 520.223 248.912 519.703 249.281 519.148C249.65 518.593 250.15 518.362 250.269 518.478C250.388 518.593 250.138 519.033 249.781 519.507C249.424 519.981 249.067 520.385 248.912 520.304Z" fill="#263238"/>
<path d="M250.078 520.951C249.924 520.951 249.995 520.304 250.364 519.691C250.733 519.079 251.197 518.709 251.328 518.801C251.459 518.894 251.233 519.414 250.9 519.957C250.566 520.501 250.245 521.009 250.078 520.951Z" fill="#263238"/>
<path d="M235.751 522.085C235.68 522.085 235.418 521.876 235.013 521.437C234.534 520.873 234 520.354 233.419 519.888C232.847 519.445 232.166 519.154 231.443 519.044C230.896 518.975 230.527 519.044 230.491 518.975C230.455 518.906 230.801 518.663 231.455 518.617C232.319 518.599 233.161 518.877 233.835 519.403C234.469 519.899 235.002 520.507 235.406 521.194C235.68 521.703 235.822 522.038 235.751 522.085Z" fill="#263238"/>
<path d="M248.972 518.443C249.055 518.582 248.746 518.929 248.222 519.114C247.698 519.299 247.234 519.229 247.211 519.114C247.187 518.998 247.556 518.755 248.008 518.593C248.46 518.432 248.877 518.304 248.972 518.443Z" fill="#263238"/>
<path d="M248.71 517.484C248.71 517.657 248.234 517.796 247.615 517.807C246.996 517.819 246.52 517.68 246.532 517.518C246.544 517.356 247.02 517.206 247.615 517.195C248.21 517.183 248.71 517.322 248.71 517.484Z" fill="#263238"/>
<path d="M315.802 224.773C315.326 224.299 314.148 224.53 314.148 224.53C314.266 223.864 314.266 223.184 314.148 222.519C313.934 221.871 312.434 221.998 312.434 221.998C312.365 221.453 312.365 220.902 312.434 220.357C312.446 220.236 312.42 220.115 312.358 220.009C312.296 219.904 312.202 219.819 312.089 219.767C311.38 219.486 310.618 219.352 309.852 219.374C308.936 218.738 312.649 213.687 314.029 212.068C315.41 210.45 315.16 209.19 313.934 209.19C313.089 209.19 308.757 214.045 307.425 215.675C306.092 217.305 302.557 221.837 302.438 218.218C302.319 214.6 300.82 211.872 299.88 211.409C298.94 210.947 297.94 212.034 298.452 213.039C298.902 214.182 299.182 215.381 299.285 216.6C299.414 217.571 299.37 218.557 299.154 219.513C298.76 221.293 298.222 223.04 297.548 224.738H297.452C297.452 224.738 271.487 248.933 269.606 250.656C267.928 252.205 234.18 248.818 227.409 248.124C225.108 247.797 222.785 247.642 220.459 247.662C217.52 247.789 216.997 248.193 214.069 248.228C206.676 248.308 199.3 248.938 192.007 250.112C188.704 250.658 185.619 252.074 183.088 254.206C180.557 256.339 178.678 259.105 177.655 262.204C170.836 282.897 155.39 331.876 152.665 359.389C150.606 363.017 148.747 366.748 147.096 370.568C145.18 375.631 145.644 375.804 146.287 375.92C148.024 376.232 150 367.146 150.737 369.342C151.475 371.539 146.989 380.174 148.81 380.428C151.19 380.752 153.082 371.18 153.308 370.417C153.534 369.654 154.712 369.897 154.498 370.614C154.153 371.631 150.809 382.417 153.141 382.763C154.426 382.948 154.569 380.671 154.569 380.671C154.569 380.671 156.949 370.348 158.032 370.556C159.115 370.764 157.961 376.856 157.413 378.891C156.866 380.925 157.627 381.954 158.746 381.457C159.508 381.11 161.328 374.926 161.828 372.914C162.328 370.903 163.577 365.331 165.255 368.556C166.933 371.781 169.48 373.654 170.527 373.7C170.763 373.674 170.985 373.579 171.166 373.429C171.346 373.279 171.476 373.08 171.538 372.857C171.601 372.635 171.594 372.399 171.518 372.18C171.441 371.962 171.299 371.771 171.11 371.631C170.209 370.777 169.436 369.804 168.813 368.741C168.258 367.913 167.856 366.998 167.623 366.036C167.144 364.118 166.865 362.159 166.79 360.187L166.6 359.031C169.266 346.211 176.941 308.583 188.02 284.55L192.566 293.636L194.541 300.364L182.427 329.414L234.097 328.755L226.386 299.924L235.751 269.868C245.878 270.088 271.879 270.458 276.211 268.551C281.661 266.239 309.852 231.651 309.852 231.651C311.69 230.264 313.45 228.782 315.124 227.212C315.124 227.212 316.838 225.813 315.802 224.773Z" fill="#FFBE9D"/>
<path d="M180.154 307.947C181.654 302.976 189.353 278.4 189.353 278.4C189.353 278.4 193.137 298.433 192.137 300.849C191.218 302.918 190.132 304.912 188.889 306.814C180.154 319.727 181.297 326.189 181.297 326.189L234.073 324.628C234.192 317.461 229.825 300.791 228.92 298.133C228.016 295.474 231.027 286.769 231.027 286.769C231.027 286.769 236.977 280.885 236.762 277.856C236.649 275.136 236.303 272.429 235.727 269.764L267.857 270.92L266.846 249.766L220.697 245.28C219.091 249.685 204.561 247.523 204.561 247.523C188.877 248.032 187.901 250.829 181.38 255.754C174.859 260.678 164.065 302.942 164.065 302.942L180.154 307.947Z" fill="white"/>
<path d="M211.356 302.942C210.441 303.1 209.51 303.147 208.583 303.08C206.858 303.08 204.49 302.965 201.883 302.71C199.277 302.456 196.921 302.098 195.243 301.774C194.318 301.658 193.411 301.433 192.542 301.104C193.472 301.104 194.401 301.189 195.315 301.358C197.004 301.566 199.349 301.855 201.943 302.109C204.537 302.364 206.893 302.537 208.595 302.653C209.523 302.664 210.447 302.761 211.356 302.942Z" fill="#263238"/>
<path d="M214.974 298.583C214.059 299.019 213.091 299.341 212.094 299.543C207.346 300.755 202.448 301.319 197.54 301.219C196.524 301.251 195.509 301.158 194.517 300.942C195.52 300.819 196.53 300.769 197.54 300.791C199.408 300.734 201.979 300.606 204.811 300.283C207.643 299.959 210.166 299.497 211.951 299.127C212.942 298.87 213.953 298.688 214.974 298.583Z" fill="#263238"/>
<path d="M232.728 279.139C232.704 280.021 232.581 280.897 232.359 281.752C232.05 283.359 231.574 285.555 230.967 287.959C230.36 290.364 229.777 292.583 229.254 294.086C229.043 294.946 228.732 295.78 228.325 296.572C228.392 295.693 228.559 294.824 228.825 293.982C229.277 292.179 229.789 290.098 230.36 287.821C230.931 285.543 231.479 283.463 231.931 281.659C232.092 280.791 232.36 279.945 232.728 279.139Z" fill="#263238"/>
<path d="M180.713 304.999C177.96 304.586 175.243 303.972 172.586 303.161C169.87 302.544 167.205 301.733 164.613 300.733C167.364 301.153 170.081 301.767 172.74 302.571C175.457 303.186 178.122 303.998 180.713 304.999Z" fill="#263238"/>
<path d="M236.298 269.51C235.849 269.585 235.391 269.585 234.942 269.51C233.699 269.386 232.478 269.102 231.312 268.666C229.365 267.955 227.593 266.857 226.11 265.442C224.626 264.026 223.463 262.325 222.697 260.447C221.849 258.381 221.487 256.158 221.637 253.939C221.691 252.108 222.254 250.326 223.268 248.783C223.981 247.743 225.046 246.978 226.278 246.621C226.608 246.533 226.948 246.49 227.29 246.494C227.528 246.494 227.647 246.494 227.647 246.494C227.647 246.494 227.147 246.494 226.35 246.806C225.219 247.212 224.26 247.973 223.625 248.968C222.006 251.442 221.554 255.962 223.28 260.181C224.083 262.17 225.34 263.957 226.957 265.406C228.282 266.592 229.807 267.546 231.467 268.227C233.024 268.825 234.644 269.255 236.298 269.51Z" fill="#263238"/>
<path d="M264.037 270.504C263.739 266.959 263.644 263.401 263.752 259.846C263.658 256.294 263.77 252.739 264.085 249.199C264.383 252.74 264.478 256.295 264.37 259.846C264.47 263.402 264.359 266.961 264.037 270.504Z" fill="#263238"/>
<path d="M220.388 246.575C220.519 243.997 220.793 241.084 220.793 241.084C220.793 241.084 227.361 240.379 227.754 233.789C228.147 227.2 227.754 211.999 227.754 211.999L215.854 206.08L202.645 216.172L204.68 249.118L216.794 249.869C217.72 249.894 218.619 249.561 219.292 248.944C219.966 248.326 220.36 247.474 220.388 246.575Z" fill="#FFBE9D"/>
<path d="M221.566 228.576C221.566 228.576 221.566 228.703 221.459 228.853C221.37 228.962 221.256 229.049 221.125 229.105C220.995 229.161 220.852 229.186 220.709 229.177C219.948 229.177 219.21 228.321 218.948 227.327C218.824 226.845 218.824 226.341 218.948 225.859C218.972 225.649 219.051 225.448 219.175 225.274C219.3 225.101 219.467 224.96 219.662 224.865C219.822 224.801 220.002 224.801 220.162 224.865C220.281 224.922 220.377 225.016 220.436 225.131C220.519 225.327 220.436 225.455 220.436 225.443C220.436 225.432 220.436 225.327 220.317 225.212C220.254 225.129 220.163 225.071 220.06 225.05C219.956 225.029 219.849 225.045 219.757 225.096C219.611 225.182 219.49 225.302 219.405 225.446C219.319 225.589 219.273 225.751 219.269 225.917C219.169 226.347 219.169 226.793 219.269 227.223C219.507 228.125 220.15 228.853 220.721 228.923C220.833 228.937 220.947 228.93 221.055 228.9C221.164 228.87 221.265 228.819 221.352 228.749C221.495 228.657 221.542 228.564 221.566 228.576Z" fill="#EB996E"/>
<path d="M231.836 208.438C230.919 205.41 227.599 203.907 224.577 203.075C219.971 201.803 214.997 201.248 210.499 202.855C206.001 204.462 200.598 207.282 200.598 212.103C197.945 211.895 196.421 214.149 195.374 216.947C194.705 218.651 194.303 220.444 194.184 222.264C193.851 228.576 192.03 237.292 187.818 241.916C185.438 244.494 182.141 246.274 180.785 249.488C179.595 252.274 180.214 255.58 179.107 258.401C178.119 260.886 175.941 262.655 174.347 264.817C172.722 267.269 171.766 270.082 171.568 272.992C171.371 275.902 171.938 278.813 173.216 281.451C174.504 284.022 176.317 286.311 178.545 288.18C180.773 290.048 183.369 291.456 186.175 292.318C191.734 293.961 197.662 294.017 203.252 292.48C207.448 291.505 211.362 289.62 214.7 286.965C218.116 284.256 220.461 280.482 221.34 276.284C222.185 271.568 220.828 266.77 219.817 262.077C216.651 247.245 217.556 246.471 221.554 232.703C221.649 232.46 221.697 232.206 221.768 231.963C221.84 231.72 221.875 231.605 221.923 231.42C222.037 230.875 222.096 230.322 222.102 229.767C221.518 229.978 220.884 230.022 220.274 229.895C219.665 229.768 219.106 229.475 218.662 229.05C218.218 228.597 217.908 228.035 217.766 227.424C217.623 226.814 217.653 226.177 217.853 225.582C218.134 224.931 218.552 224.345 219.081 223.861C219.61 223.377 220.238 223.006 220.923 222.773C222.244 222.241 223.66 221.964 224.958 221.374C227.706 220.102 229.61 217.467 230.908 214.704C231.974 212.789 232.303 210.568 231.836 208.438Z" fill="#263238"/>
<path d="M222.042 228.888C222.294 229.249 222.501 229.637 222.661 230.044C223.018 230.772 223.494 231.801 224.018 232.992L224.113 233.212H223.863L222.673 233.316C221.852 233.316 221.162 233.466 220.352 233.454C220.282 233.439 220.217 233.407 220.162 233.36C220.108 233.314 220.067 233.255 220.043 233.189C220.007 233.083 220.007 232.97 220.043 232.865C220.07 232.709 220.106 232.555 220.15 232.402L220.364 231.582C220.472 231.034 220.639 230.499 220.864 229.986C220.842 230.545 220.758 231.099 220.614 231.639L220.448 232.46C220.388 232.738 220.281 233.165 220.448 233.131C221.043 233.131 221.887 233.004 222.673 232.957L223.863 232.853L223.708 233.108C223.196 231.952 222.768 230.865 222.518 230.114C222.299 229.73 222.139 229.317 222.042 228.888Z" fill="white"/>
<path d="M181.297 326.189L234.073 324.628L257.04 411.721L252.816 511.622H224.91L228.325 413.848L207.917 353.216L211.058 515.495L182.855 515.9L179.892 363.365C179.761 359.123 178.333 349.563 178.869 345.355L181.297 326.189Z" fill="#263238"/>
<path d="M214.938 354.453C214.074 354.506 213.207 354.455 212.356 354.302C210.761 354.117 208.583 353.794 206.191 353.331C203.799 352.869 201.657 352.337 200.11 351.91C199.284 351.733 198.484 351.453 197.73 351.077C197.73 350.904 201.61 351.806 206.37 352.742C211.13 353.678 214.962 354.279 214.938 354.453Z" fill="#455A64"/>
<path d="M252.53 506.143C252.53 506.305 246.211 506.443 238.417 506.443C230.622 506.443 224.291 506.305 224.291 506.143C224.291 505.981 230.61 505.842 238.417 505.842C246.223 505.842 252.53 505.969 252.53 506.143Z" fill="#455A64"/>
<path d="M210.809 511.276C210.809 511.449 204.668 511.576 197.1 511.576C189.531 511.576 183.403 511.449 183.403 511.276C183.403 511.102 189.543 510.975 197.1 510.975C204.656 510.975 210.809 511.114 210.809 511.276Z" fill="#455A64"/>
<path d="M207.167 510.86C207.001 510.86 206.263 475.405 205.513 431.673C204.763 387.942 204.323 352.464 204.478 352.464C204.632 352.464 205.394 387.907 206.132 431.662C206.87 475.417 207.346 510.86 207.167 510.86Z" fill="#455A64"/>
<path d="M248.781 506.143C248.768 505.985 248.768 505.827 248.781 505.669V504.282C248.781 503.033 248.877 501.242 248.948 498.964C249.115 494.34 249.353 487.624 249.65 479.393C250.293 462.839 251.197 440.02 252.185 414.831C252.185 414.588 252.185 414.357 252.185 414.149V414.229C245.937 389.953 240.285 367.92 236.179 351.979L231.419 333.124C230.872 330.917 230.455 329.194 230.158 327.992C230.015 327.425 229.92 326.986 229.837 326.651C229.79 326.5 229.762 326.345 229.753 326.188C229.815 326.334 229.863 326.485 229.896 326.639C229.991 326.963 230.11 327.402 230.277 327.957C230.598 329.113 231.062 330.87 231.657 333.067C232.847 337.529 234.525 343.956 236.62 351.875C240.761 367.804 246.473 389.78 252.804 414.091V414.172C252.804 414.38 252.804 414.622 252.804 414.854C251.744 440.043 250.781 462.851 250.078 479.405C249.71 487.647 249.4 494.317 249.186 498.964C249.067 501.276 248.972 503.033 248.912 504.282C248.912 504.871 248.841 505.334 248.829 505.669C248.831 505.828 248.815 505.987 248.781 506.143Z" fill="#455A64"/>
<path d="M239.678 412.114C237.674 412.754 235.609 413.2 233.514 413.444C230.943 413.871 228.754 414.172 227.766 414.218V413.987C228.087 414.079 228.254 414.137 228.254 414.184C228.254 414.23 228.052 414.184 227.718 414.184H227.004L227.718 413.975C228.647 413.71 230.836 413.27 233.407 412.819C235.468 412.385 237.569 412.149 239.678 412.114Z" fill="#455A64"/>
<path d="M239.19 415.432C237.334 415.514 235.474 415.433 233.633 415.189C231.774 415.152 229.922 414.955 228.099 414.599C231.818 414.304 235.562 414.585 239.19 415.432Z" fill="#455A64"/>
<path opacity="0.2" d="M181.07 328.027C181.695 328.806 182.483 329.449 183.381 329.913C184.279 330.377 185.268 330.652 186.283 330.72C188.408 330.965 190.558 330.926 192.673 330.604C206.298 329.136 220.733 327.784 234.073 324.628C216.806 325.564 198.563 325.252 181.297 326.189L181.118 327.622" fill="black"/>
<g opacity="0.2">
<path d="M198.861 351.667L208.595 388.358L207.917 353.216L198.861 351.667Z" fill="black"/>
</g>
</svg>
